<svg xmlns="http://www.w3.org/2000/svg" viewBox="0 0 67.03 49.49"><g id="Layer_2" data-name="Layer 2"><g id="Layer_1-2" data-name="Layer 1"><path d="M0,22.78c.17-1.25.3-2.5.51-3.74A33,33,0,0,1,9.67,1.18a2.14,2.14,0,0,1,3.1-.2,2.1,2.1,0,0,1,0,3.14,30.75,30.75,0,0,0-5.63,8,29.35,29.35,0,0,0,5,32.65c.21.22.43.44.63.67a2.12,2.12,0,0,1-.07,3.1,2.05,2.05,0,0,1-3-.17A57.72,57.72,0,0,1,5.43,43,32.52,32.52,0,0,1,.15,28.06c0-.45-.1-.9-.15-1.35Z"/><path d="M33.49,0A24.75,24.75,0,1,1,8.77,24.78,24.84,24.84,0,0,1,33.49,0Zm0,45.19A20.45,20.45,0,1,0,13.08,24.74,20.48,20.48,0,0,0,33.51,45.19Z"/><path d="M62.75,23.65A28.43,28.43,0,0,0,54.63,4.53a2.68,2.68,0,0,1-1-2.22A2.07,2.07,0,0,1,55,.53a2,2,0,0,1,2.26.59A49.35,49.35,0,0,1,60.57,5,32.67,32.67,0,0,1,67,26.25a32.85,32.85,0,0,1-9.6,22,2.14,2.14,0,0,1-3.14.21,2.11,2.11,0,0,1,0-3.15,29.65,29.65,0,0,0,6-8.82A31,31,0,0,0,62.75,23.65Z"/><path d="M21,26.35,19.63,30.5H17.86l4.49-13.21h2.06L28.92,30.5H27.09l-1.41-4.15ZM25.33,25,24,21.21c-.29-.86-.49-1.65-.68-2.41H23.3c-.19.77-.4,1.58-.66,2.39L21.34,25Z"/><path d="M30.85,17.47A15.62,15.62,0,0,1,34,17.18a5.44,5.44,0,0,1,3.63,1,2.83,2.83,0,0,1,1.1,2.34,3.13,3.13,0,0,1-2.23,2.9v.05a3.38,3.38,0,0,1,2.73,3.32,3.48,3.48,0,0,1-1.13,2.63c-.91.85-2.4,1.24-4.57,1.24a22,22,0,0,1-2.65-.15Zm1.71,5.41h1.56c1.79,0,2.85-.95,2.85-2.23,0-1.53-1.16-2.15-2.89-2.15a7.3,7.3,0,0,0-1.52.12Zm0,6.32a7.87,7.87,0,0,0,1.44.09c1.77,0,3.4-.65,3.4-2.57S35.84,24.17,34,24.17H32.56Z"/><path d="M41.26,28.42a6,6,0,0,0,3.05.86c1.75,0,2.77-.91,2.77-2.25s-.71-2-2.5-2.62c-2.15-.76-3.49-1.9-3.49-3.75,0-2.05,1.71-3.58,4.28-3.58a6,6,0,0,1,2.92.64l-.48,1.4a5,5,0,0,0-2.49-.63c-1.82,0-2.5,1.08-2.5,2,0,1.22.8,1.83,2.62,2.53,2.25.88,3.37,2,3.37,3.9s-1.49,3.81-4.62,3.81a6.86,6.86,0,0,1-3.38-.86Z"/></g></g></svg>