<svg xmlns="http://www.w3.org/2000/svg" viewBox="0 0 86.02 75.23"><defs><style>.cls-1{fill:none;stroke:#000;stroke-width:2.85px;}</style></defs><g id="Layer_2" data-name="Layer 2"><g id="Layer_1-2" data-name="Layer 1"><path d="M70.32,7.14V19.41h8.45a.14.14,0,0,1,.11.15V68a.13.13,0,0,1-.11.14H7.28A.14.14,0,0,1,7.14,68V19.56a.14.14,0,0,1,.14-.15H60.75V7.14h9.57M71.83,0H59.27a5.64,5.64,0,0,0-5.65,5.62v6.66H7.28A7.27,7.27,0,0,0,0,19.56V68a7.27,7.27,0,0,0,7.28,7.28H78.77A7.27,7.27,0,0,0,86,68V19.56a7.26,7.26,0,0,0-7.25-7.28H77.46V5.62A5.62,5.62,0,0,0,71.83,0Z"/><path class="cls-1" d="M1.12,52.88c5.23,0,5.23,6.69,10.45,6.69S16.79,52.88,22,52.88s5.22,6.69,10.44,6.69,5.23-6.69,10.45-6.69,5.23,6.69,10.45,6.69,5.23-6.69,10.45-6.69S69,59.57,74.27,59.57s5.23-6.69,10.45-6.69"/><path d="M80.74,58.82a2.89,2.89,0,0,0-3.23-1.31c-.66.17-3.44,1.44-6.44.63l-.1,0c-1-.79-2.16-2.29-2.86-2.79A7.32,7.32,0,0,0,65.05,54l-.12-.14c-1.33-1.94-4.58-1.83-5.22.68a8.83,8.83,0,0,0-.28,1.87,11.45,11.45,0,0,1-3.91,3.06c-5.31,2-6.7-3-10.35-5.1A5.36,5.36,0,0,0,37.93,56a2.35,2.35,0,0,0-.33,2.08,10.23,10.23,0,0,1-6,1.44c-3.65-.42-4.4-4.48-7.84-5.13a5.94,5.94,0,0,0-.73,0,2.54,2.54,0,0,0-2.25-1.21,2.74,2.74,0,0,0-2.92,2.5c-1.72.89-3.19,2.11-4.58,2.84-1,.53-2.12,1-3.13,1.67a4.31,4.31,0,0,0-.31-1C8,56,3,58.87,4.9,62.05c.27.46-.54,2.14-.58,2.75a4.63,4.63,0,0,0,.38,2.3,4.07,4.07,0,0,0,4.36,2.56l.21,0a1.86,1.86,0,0,0,.27.22c6.5,3.68,15,2.8,22.16,2.77q12.77-.06,25.49-1.13A84.9,84.9,0,0,0,68.1,70.24c2.76,3,7.34,2,9.5-1.14a1.63,1.63,0,0,0,.09-.19,5.2,5.2,0,0,0,3.61-2.18C83.06,64.19,82,61.31,80.74,58.82Z"/></g></g></svg>