<svg xmlns="http://www.w3.org/2000/svg" viewBox="0 0 90.02 67.56"><g id="Layer_2" data-name="Layer 2"><g id="Layer_1-2" data-name="Layer 1"><path d="M0,7.74A3.38,3.38,0,0,1,3.63,5.61c2.5.09,5,0,7.62,0,0-.94,0-1.81,0-2.68A2.8,2.8,0,0,1,14.18,0h11a2.81,2.81,0,0,1,3,3c0,.84,0,1.69,0,2.58H61.89c0-.9,0-1.77,0-2.65A2.79,2.79,0,0,1,64.83,0h11a2.82,2.82,0,0,1,3,3V5.63h5.67c.94,0,1.88,0,2.81,0A2.82,2.82,0,0,1,90,8.38c0,.27,0,.53,0,.8V64c0,2.52-1,3.5-3.51,3.5q-41.45,0-82.88,0A3.46,3.46,0,0,1,0,65.42ZM5.69,11.3V61.84H84.35V11.3Z"/><path d="M73.14,28.12v5.59H67.53V28.18H61.94V22.54h5.53v-5.6h5.64v5.54H78.7v5.64Z"/><path d="M11.3,22.55H28.08v5.54H11.3Z"/></g></g></svg>