<svg xmlns="http://www.w3.org/2000/svg" viewBox="0 0 67.03 49.49"><g id="Layer_2" data-name="Layer 2"><g id="Layer_1-2" data-name="Layer 1"><path d="M0,22.78c.17-1.25.3-2.5.51-3.74A33,33,0,0,1,9.67,1.18a2.14,2.14,0,0,1,3.1-.2,2.1,2.1,0,0,1,0,3.14,30.75,30.75,0,0,0-5.63,8,29.35,29.35,0,0,0,5,32.65c.21.22.43.44.63.67a2.12,2.12,0,0,1-.07,3.1,2.05,2.05,0,0,1-3-.17A57.72,57.72,0,0,1,5.43,43,32.52,32.52,0,0,1,.15,28.06c0-.45-.1-.9-.15-1.35Z"/><path d="M33.49,0A24.75,24.75,0,1,1,8.77,24.78,24.84,24.84,0,0,1,33.49,0Zm0,45.19A20.45,20.45,0,1,0,13.08,24.74,20.48,20.48,0,0,0,33.51,45.19Z"/><path d="M62.75,23.65A28.43,28.43,0,0,0,54.63,4.53a2.68,2.68,0,0,1-1-2.22A2.07,2.07,0,0,1,55,.53a2,2,0,0,1,2.26.59A49.35,49.35,0,0,1,60.57,5,32.67,32.67,0,0,1,67,26.25a32.85,32.85,0,0,1-9.6,22,2.14,2.14,0,0,1-3.14.21,2.11,2.11,0,0,1,0-3.15,29.65,29.65,0,0,0,6-8.82A31,31,0,0,0,62.75,23.65Z"/><path d="M31.39,20c0-3,0-6,0-9A2.12,2.12,0,0,1,34.3,8.92a2,2,0,0,1,1.33,1.79,4.43,4.43,0,0,1,0,.52c0,5.89,0,11.77,0,17.66A2.14,2.14,0,0,1,33.7,31.3a2.07,2.07,0,0,1-2.29-2.05c-.05-1.76,0-3.53,0-5.3C31.38,22.62,31.39,21.29,31.39,20Z"/><path d="M36.17,35.9a2.65,2.65,0,1,1-5.3,0,2.65,2.65,0,1,1,5.3,0Z"/></g></g></svg>