<svg xmlns="http://www.w3.org/2000/svg" viewBox="0 0 52.55 63.07"><g id="Layer_2" data-name="Layer 2"><g id="Layer_1-2" data-name="Layer 1"><path d="M9.89,0H37.36A11.76,11.76,0,0,1,39,.54a5.22,5.22,0,0,1,3,5V39.42h.73c3,0,4.53,1.56,4.53,4.56,0,.72,0,1.44,0,2.16a1.24,1.24,0,0,0,1.17,1.14,1.27,1.27,0,0,0,1.33-1,3.45,3.45,0,0,0,.08-.85V23.68l-.6-.09a5.16,5.16,0,0,1-4.59-4.76c-.06-1.42-.1-2.84,0-4.25a2.23,2.23,0,0,1,.61-1.27c1-1.09,2.07-2.12,3.12-3.15.32-.31.7-.56,1.07-.86L46,5.79a10.09,10.09,0,0,1-1-1.13A1.25,1.25,0,0,1,45.06,3a1.28,1.28,0,0,1,1.63-.16,5.07,5.07,0,0,1,.56.48c1.48,1.48,2.94,3,4.45,4.43a2.61,2.61,0,0,1,.85,2.07q0,17.76,0,35.53c0,.32,0,.65,0,1a3.91,3.91,0,0,1-3.83,3.55,3.85,3.85,0,0,1-3.94-3.4c-.09-1-.06-2-.08-2.95A1.37,1.37,0,0,0,43.19,42c-.36,0-.73,0-1.11,0V52.55a2.55,2.55,0,0,0,.34,0,5.18,5.18,0,0,1,4.81,4.75c.06,1.27.06,2.55.07,3.82,0,1.49-.41,1.91-1.89,1.91h-44A1.29,1.29,0,0,1,0,61.71c0-1.46,0-2.92,0-4.37a4.87,4.87,0,0,1,1.76-3.47,5.39,5.39,0,0,1,3.43-1.32V5.8A5.78,5.78,0,0,1,6.68,1.67,5.92,5.92,0,0,1,9.89,0ZM23.66,23.66H35c1.3,0,1.73-.42,1.73-1.73V7c0-1.36-.41-1.77-1.75-1.77H12.25c-1.31,0-1.74.43-1.74,1.73q0,7.44,0,14.89c0,1.34.42,1.77,1.76,1.77Z"/></g></g></svg>