<svg xmlns="http://www.w3.org/2000/svg" viewBox="0 0 106.45 68.82"><g id="Layer_2" data-name="Layer 2"><g id="Layer_1-2" data-name="Layer 1"><path d="M106.45,36.48c-.39,1.75-.68,3.53-1.19,5.24A29.54,29.54,0,0,1,97.69,54,50.12,50.12,0,0,1,74.92,67.26a35,35,0,0,1-16.42,1,20.14,20.14,0,0,1-13-8.4c-3.38-4.81-4.83-10.3-5.52-16a77.32,77.32,0,0,1,.15-20A34.31,34.31,0,0,1,44.86,9.91,20.48,20.48,0,0,1,59.93.31,36.61,36.61,0,0,1,75.22,1.62,50.67,50.67,0,0,1,94.75,12.06c5.4,4.66,9.57,10.17,11.15,17.32.21,1,.37,2,.55,2.94ZM47,34.61c.05,5.36.39,10.88,2.26,16.18,1.54,4.36,4.05,7.88,8.59,9.52a20.39,20.39,0,0,0,9.24.78A41.26,41.26,0,0,0,84.6,54.84c5.13-3.18,9.52-7.15,12.31-12.63a16.7,16.7,0,0,0,2-8.08c-.13-4.74-2.16-8.74-5.1-12.33a37.46,37.46,0,0,0-11.53-9.21c-6-3.22-12.42-5.23-19.36-5a15.17,15.17,0,0,0-6.61,1.59c-3.79,2-5.84,5.29-7.16,9.16C47.35,23.55,47,29,47,34.61Z"/><path d="M18,38.93c-4.5,0-9,0-13.5,0A6.3,6.3,0,0,1,2,38.38,3.58,3.58,0,0,1,.05,34.57a3.74,3.74,0,0,1,3-3.1,8.11,8.11,0,0,1,1.55-.13q13.45,0,26.91,0a7.48,7.48,0,0,1,1.95.21A3.75,3.75,0,0,1,33,38.8a8.8,8.8,0,0,1-1.54.12Z"/><path d="M18,11.34c-4.71,0-9.42,0-14.13,0a3.75,3.75,0,1,1-.14-7.5c2.15,0,4.3,0,6.45,0H32a3.75,3.75,0,0,1,4,3.6,3.69,3.69,0,0,1-3.79,3.91c-4.54,0-9.07,0-13.61,0H18Z"/><path d="M18,66.44c-4.71,0-9.42,0-14.13,0a3.73,3.73,0,0,1-3.6-5.09A3.79,3.79,0,0,1,4,58.92H22.61c3.08,0,6.17,0,9.25,0,2.49,0,4.15,1.54,4.14,3.79s-1.66,3.72-4.09,3.73C27.27,66.45,22.63,66.44,18,66.44Z"/><path d="M18,25.13c-4.57,0-9.14,0-13.71,0A3.93,3.93,0,0,1,.58,23.32a3.76,3.76,0,0,1,2.79-5.71,5.7,5.7,0,0,1,.83,0H31.83c2.45,0,4.12,1.51,4.17,3.69a3.61,3.61,0,0,1-3.44,3.81c-2.22.1-4.43.05-6.65.06Z"/><path d="M18,45.15c4.67,0,9.35,0,14,0a3.76,3.76,0,0,1,.45,7.51c-.58,0-1.18,0-1.76,0h-26c-.38,0-.76,0-1.14,0A3.78,3.78,0,0,1,0,48.82a3.66,3.66,0,0,1,3.65-3.64c4.78,0,9.56,0,14.34,0Z"/></g></g></svg>