<svg xmlns="http://www.w3.org/2000/svg" viewBox="0 0 62.34 55.82"><g id="Layer_2" data-name="Layer 2"><g id="Layer_1-2" data-name="Layer 1"><path d="M0,24.12A3,3,0,0,1,3.29,22c2.64.06,5.27,0,7.91,0a2.57,2.57,0,0,1,2.7,3,2.46,2.46,0,0,1-2.24,2.07c-1.25.06-2.51,0-3.77,0-1.52,0-3-.05-4.56,0a3,3,0,0,1-3.33-2Z"/><path d="M31.21,0h6.16a2.42,2.42,0,0,1,2.69,2.7c0,3,0,6.07,0,9.11a1.17,1.17,0,0,0,.48,1,14.23,14.23,0,0,1,5,8.05A14.58,14.58,0,0,1,37,37.84c-5.64,2.39-10.95,1.49-15.62-2.5a14,14,0,0,1-5-10.91,14.25,14.25,0,0,1,5.09-11.27,2,2,0,0,0,.82-1.76c-.05-2.9,0-5.81,0-8.71A2.4,2.4,0,0,1,24,.1,4.22,4.22,0,0,1,25,0Zm10,24.29a10,10,0,1,0-10,10A10,10,0,0,0,41.17,24.29ZM27.11,10a15.39,15.39,0,0,1,8.11,0V4.82H27.11Z"/><path d="M42.61,10.91a2.69,2.69,0,0,1,.78-2.12c2-2.06,4.08-4.12,6.15-6.15a2.54,2.54,0,0,1,3.66-.05,2.55,2.55,0,0,1,0,3.66c-2,2.09-4.12,4.14-6.2,6.19a2.44,2.44,0,0,1-2.86.55A2.37,2.37,0,0,1,42.61,10.91Z"/><path d="M8.23,4.15A2.69,2.69,0,0,0,9,6.27c2,2.06,4.08,4.12,6.15,6.15a2.57,2.57,0,1,0,3.66-3.61c-2-2.08-4.12-4.14-6.19-6.19a2.46,2.46,0,0,0-2.87-.55A2.37,2.37,0,0,0,8.23,4.15Z"/><path d="M8.39,45.13A2.69,2.69,0,0,1,9.14,43c2.06-2.07,4.11-4.15,6.2-6.2A2.57,2.57,0,0,1,19,40.43q-3.11,3.18-6.28,6.28a2.44,2.44,0,0,1-2.82.49A2.38,2.38,0,0,1,8.39,45.13Z"/><path d="M54,44.49a2.67,2.67,0,0,1-1.41,2.65,2.49,2.49,0,0,1-2.75-.26c-.13-.1-.25-.21-.37-.32l-6-6a2.55,2.55,0,0,1-.76-2.66,2.48,2.48,0,0,1,1.95-1.8,2.33,2.33,0,0,1,2.25.64c2.14,2.1,4.27,4.21,6.35,6.37A4.46,4.46,0,0,1,54,44.49Z"/><path d="M55.36,27.21c-1.46,0-2.92,0-4.38,0a2.54,2.54,0,0,1-2.53-3.07,2.52,2.52,0,0,1,2.46-2.06c3,0,6,0,8.94,0a2.52,2.52,0,0,1,2.49,2.55,2.57,2.57,0,0,1-2.48,2.57h-4.5Z"/><path d="M28.61,48.77c0-1.48,0-3,0-4.44a2.51,2.51,0,0,1,2.26-2.44,2.57,2.57,0,0,1,2.81,2,2.52,2.52,0,0,1,.05.48c0,3,0,6,0,8.94a2.4,2.4,0,0,1-1.59,2.31,2.46,2.46,0,0,1-2.76-.54,2.54,2.54,0,0,1-.78-1.91c0-1.46,0-2.93,0-4.39Z"/></g></g></svg>