<svg xmlns="http://www.w3.org/2000/svg" viewBox="0 0 73.24 37.88"><defs><style>.cls-1{fill:none;stroke:#000;stroke-width:2.85px;}</style></defs><g id="Layer_2" data-name="Layer 2"><g id="Layer_1-2" data-name="Layer 1"><path d="M73.24,15.08l-.32.61A2.8,2.8,0,0,1,69.51,17a2.57,2.57,0,0,1-1.71-3.19c.71-2,1.63-3.89,2.47-5.82h.33l2.64,5.89Z"/><path class="cls-1" d="M1.63,30.87c4.37,0,4.37,5.58,8.73,5.58s4.36-5.58,8.72-5.58,4.36,5.58,8.73,5.58,4.36-5.58,8.72-5.58,4.37,5.58,8.73,5.58,4.37-5.58,8.73-5.58,4.36,5.58,8.73,5.58,4.37-5.58,8.73-5.58"/><path d="M71.45,3.57l-2,3.12L65.6,4.23l-8.21,6.6Q48.75,17.78,40.1,24.7a1.86,1.86,0,0,1-1.08.4c-8.58,0-17.16,0-25.74,0a5.86,5.86,0,0,1-.61,0c0-.08-.08-.13-.07-.16.26-1.34-.47-2.26-1.23-3.23C7.7,17,4.07,12.27.43,7.56L0,7,1.45,5.45C2.77,4.07,4.1,2.7,5.4,1.31a.67.67,0,0,1,1-.16C8.62,2.46,10.86,3.74,13.1,5a2.15,2.15,0,0,0,.93.28c3.55,0,7.1,0,10.65,0,.17,0,.33,0,.54,0V4H20.8V.24H33.43V3.92H29V5.26c.25,0,.5,0,.75,0,3,0,5.91,0,8.87,0a3.36,3.36,0,0,1,1.47.39c1,.52,1.94,1.1,2.89,1.7a1.21,1.21,0,0,0,1.19.12C51.14,5.05,58.07,2.6,65,.12a1.37,1.37,0,0,1,1.38.14C68,1.38,69.71,2.45,71.45,3.57Zm-16,4.06,0-.12-.65.23-10.9,3.88a1.23,1.23,0,0,1-1.19-.11c-1.2-.74-2.41-1.46-3.64-2.14A2.52,2.52,0,0,0,37.81,9C30.91,9,24,9,17.13,9l-.79,0v12.3c.21,0,.4,0,.58,0q10.45,0,20.89,0a1.63,1.63,0,0,0,.95-.37q4.26-3.37,8.48-6.79ZM12.43,17l.15-.06c0-2.54,0-5.08,0-7.63a.68.68,0,0,0-.3-.48Q9.58,7.27,6.88,5.74a.59.59,0,0,0-.55,0c-.5.46-1,1-1.44,1.47Z"/></g></g></svg>