<svg xmlns="http://www.w3.org/2000/svg" viewBox="0 0 64.01 50.26"><defs><style>.cls-1{fill:none;stroke:#000;stroke-linecap:round;stroke-miterlimit:10;stroke-width:3.35px;}</style></defs><g id="Layer_2" data-name="Layer 2"><g id="Layer_1-2" data-name="Layer 1"><path d="M26.93.79a24.75,24.75,0,1,1-19.65,29A24.83,24.83,0,0,1,26.93.79Zm8.46,44.39A20.44,20.44,0,1,0,11.5,28.91,20.47,20.47,0,0,0,35.39,45.18Z"/><path class="cls-1" d="M2.45,31.64a23.43,23.43,0,0,1,.36-13.19"/><path class="cls-1" d="M4.94,11.61a23.47,23.47,0,0,1,8.75-9.87"/><path class="cls-1" d="M13.42,48.58A23.5,23.5,0,0,1,5.21,38.25"/><path class="cls-1" d="M2.45,31.64a23.43,23.43,0,0,1,.36-13.19"/><path class="cls-1" d="M61.56,31.58a23.51,23.51,0,0,0-.36-13.19"/><path class="cls-1" d="M59.07,11.55a23.44,23.44,0,0,0-8.76-9.87"/><path class="cls-1" d="M50.59,48.52a23.38,23.38,0,0,0,8.2-10.34"/><path class="cls-1" d="M61.56,31.58a23.51,23.51,0,0,0-.36-13.19"/></g></g></svg>