<svg xmlns="http://www.w3.org/2000/svg" viewBox="0 0 57.2 63.75"><g id="Layer_2" data-name="Layer 2"><g id="Layer_1-2" data-name="Layer 1"><path d="M57.2,10.94c-1.75,1.71-3.49,3.42-5.25,5.11-3,2.93-6.06,5.84-9.08,8.77a2.35,2.35,0,0,0-.59.95q-3,9.61-5.92,19.23a1.13,1.13,0,0,0,.33,1.33q6.09,6,12.12,12.1c.94.94.94,1.33,0,2.25s-1.69,1.71-2.55,2.55-1.21.69-1.92,0Q37.68,56.54,31,49.88a2.08,2.08,0,0,0-1.09-.56c-5.08-.83-10.16-1.62-15.25-2.42-1.31-.21-1.52-.08-1.93,1.22L8.91,60.32a4.51,4.51,0,0,1-8.8-2C1,54.84,2,51.36,2.9,47.86c.75-2.75,1.49-5.5,2.24-8.25A3.29,3.29,0,0,1,9,37c3,.32,6.09.72,9.13,1.09l1,.1.12-.18c-.32-.29-.67-.56-1-.88a1.06,1.06,0,0,1,0-1.64c1-1,2-2,3-3a1,1,0,0,1,1.64,0c.25.23.46.5.78.86.41-1.28.76-2.41,1.12-3.54,1-3.25,2-6.5,3-9.76a7.37,7.37,0,0,1,5.88-5.41,7.56,7.56,0,0,1,7.53,2.59,2.25,2.25,0,0,1,.15.28l.58-.55L55.07,3.88c.81-.8,1.44-.77,2.13.11Zm-23,32.92c.08-.2.11-.26.13-.32,2-6.63,4.08-13.26,6.06-19.91A5.83,5.83,0,0,0,40.49,21a5.38,5.38,0,0,0-5.21-4.35,5.44,5.44,0,0,0-5.5,4c-1.43,4.58-2.84,9.17-4.28,13.74a.9.9,0,0,0,.28,1.06c2.44,2.41,4.86,4.85,7.29,7.28C33.43,43.05,33.77,43.43,34.19,43.86Zm-6.6,2.8.07-.13-.34-.36c-1.7-1.7-3.39-3.41-5.11-5.09a1.85,1.85,0,0,0-1-.48c-4.08-.53-8.17-1-12.25-1.53a1.41,1.41,0,0,0-1.63,1.1c-.54,2-1.07,3.93-1.6,5.89C4.62,50.18,3.54,54.3,2.39,58.4a2.26,2.26,0,0,0,1.45,3,2.28,2.28,0,0,0,2.88-1.76c.09-.27.17-.53.25-.8L10.6,47.24a3.41,3.41,0,0,1,4-2.56c2.67.38,5.34.81,8,1.22Zm-7-10.42L45.31,60.92l1.4-1.35L22,34.83ZM55,7.2c-.1,0-.15,0-.17,0l-12.12,12a.57.57,0,0,0-.15.44c.13.64.3,1.27.46,1.93.09-.06.17-.1.23-.15Q49,15.91,54.73,10.36A.74.74,0,0,0,55,9.88C55,9,55,8.1,55,7.2Z"/><path d="M40.71,13.18a6.59,6.59,0,1,1,6.58-6.59A6.59,6.59,0,0,1,40.71,13.18ZM45.1,6.54a4.39,4.39,0,0,0-8.77.07,4.39,4.39,0,1,0,8.77-.07Z"/></g></g></svg>