<svg xmlns="http://www.w3.org/2000/svg" viewBox="0 0 63.08 54.23"><g id="Layer_2" data-name="Layer 2"><g id="Layer_1-2" data-name="Layer 1"><path d="M63.08,46.57a11.85,11.85,0,0,1-5.49,5.85c-5.26,2.77-10.34,2.34-15.13-1.19a7.49,7.49,0,0,1-.61-.51l-.6-.53a13.8,13.8,0,0,1-19.42,0A13.63,13.63,0,0,1,17.74,53,13.23,13.23,0,0,1,3.45,51a18,18,0,0,1-2.9-3.31,2.42,2.42,0,0,1,.56-3.57,2.44,2.44,0,0,1,3.47.81,9.64,9.64,0,0,0,4,3.57,8.75,8.75,0,0,0,10.73-2.91c.2-.31.41-.62.63-.91a2.44,2.44,0,0,1,3.88,0,21.72,21.72,0,0,0,2.14,2.52,8.66,8.66,0,0,0,12.73-1.6c.15-.22.29-.44.45-.66a2.44,2.44,0,0,1,4.27,0,10.57,10.57,0,0,0,2.95,3A8.77,8.77,0,0,0,58,45.62l.51-.77a2.48,2.48,0,0,1,4.42.48c0,.09.1.17.14.25Z"/><path d="M63.08,35.23a13.13,13.13,0,0,1-9.45,7.24A13.55,13.55,0,0,1,39.16,36a2.46,2.46,0,0,1,.72-3.37,2.41,2.41,0,0,1,3.37.67,10.84,10.84,0,0,0,3.09,3.2A8.76,8.76,0,0,0,58,34.2c.18-.27.36-.55.55-.82A2.46,2.46,0,0,1,63,34a2.36,2.36,0,0,0,.12.28Z"/><path d="M34.1,14.76h8.17a2.46,2.46,0,1,1,0,4.92c-2.49,0-5,0-7.46,0H34.1v4.2c.26,0,.48,0,.7,0,2.57,0,5.13,0,7.7,0a2.44,2.44,0,0,1,.81,4.73,3.78,3.78,0,0,1-1.21.18c-2.42,0-4.84,0-7.26,0h-.73c0,.2,0,.38,0,.55,0,1.34,0,2.67,0,4a.77.77,0,0,0,.49.8A6.5,6.5,0,0,1,38.06,41,6.53,6.53,0,0,1,25.45,42.2a6.51,6.51,0,0,1,3.06-7.94,1,1,0,0,0,.63-1q0-15.06,0-30.12a6.27,6.27,0,0,1,.09-1.22A2.47,2.47,0,0,1,31.71,0,2.39,2.39,0,0,1,34,2.16c.07.88,0,1.76.05,2.64v.79l.72,0c2.52,0,5,0,7.57,0A2.44,2.44,0,0,1,44.7,9a2.51,2.51,0,0,1-2.57,1.53h-8Z"/><path d="M11.3,42.76A13.37,13.37,0,0,1,.4,36.05a2.45,2.45,0,0,1,.7-3.37,2.39,2.39,0,0,1,3.37.65,10.06,10.06,0,0,0,4,3.7,8.76,8.76,0,0,0,10.79-2.87c.2-.31.4-.62.63-.91A2.45,2.45,0,0,1,24,35.92,13.51,13.51,0,0,1,18.9,41,14.31,14.31,0,0,1,11.3,42.76Z"/></g></g></svg>